<?xml version="1.0" standalone="no"?>
<!DOCTYPE svg PUBLIC "-//W3C//DTD SVG 1.1//EN" "http://www.w3.org/Graphics/SVG/1.1/DTD/svg11.dtd" >
<svg xmlns="http://www.w3.org/2000/svg">
<metadata>Generated by IcoMoon</metadata>
<defs>
<font id="washicons" horiz-adv-x="1024">
<font-face units-per-em="1024" ascent="960" descent="-64" />
<missing-glyph horiz-adv-x="1024" />
<glyph unicode="&#x20;" horiz-adv-x="512" d="" />
<glyph unicode="&#xe900;" glyph-name="a1" d="M355.328 538.624c-24.192 0-44.064-7.808-59.648-23.36-15.552-15.584-23.36-35.52-23.36-59.808 0-22.816 6.624-41.472 19.872-55.936 13.216-14.496 30.080-21.76 50.624-21.76 25.312 0 43.072 9.504 53.248 28.512 0.256-0.096 0.48-0.096 0.672 0 0-28.96-6.016-51.328-18.016-67.136-12.032-15.744-28.864-23.616-50.528-23.616-14.912 0-28.992 3.904-42.272 11.68v-34.528c12.704-5.856 27.776-8.768 45.216-8.768 32.992 0 58.752 12.32 77.312 36.96s27.872 59.648 27.872 105.024c0 36.736-7.168 64.736-21.408 83.936-14.272 19.168-34.144 28.8-59.584 28.8zM383.104 421.632c-7.84-7.936-17.44-11.936-28.768-11.936-13.056 0-23.392 4.384-31.040 13.056-7.616 8.704-11.392 20.736-11.392 36.128 0 13.856 3.872 25.312 11.68 34.368 7.776 9.024 17.472 13.568 29.024 13.568 12.512 0 22.656-5.216 30.496-15.616 7.84-10.432 11.776-23.84 11.776-40.256 0-11.584-3.936-21.312-11.776-29.312zM539.424 439.424c-6.4 0-13.344-0.256-20.768-0.672v61.696h91.584v34.048h-126.656v-129.632c17.984 1.376 30.272 2.048 36.928 2.048 19.36 0 34.208-3.872 44.608-11.68 10.368-7.776 15.552-18.656 15.552-32.64 0-14.208-5.088-25.6-15.296-34.112-10.208-8.576-23.68-12.8-40.416-12.8-16.64 0-32.992 5.44-49.152 16.32v-38.304c11.808-6.752 29.76-10.112 53.824-10.112 28.512 0 50.944 7.328 67.296 22.048 16.32 14.752 24.48 34.304 24.48 58.688 0 23.296-7.136 41.632-21.376 55.008-14.272 13.408-34.464 20.096-60.608 20.096zM700.32 537.952c-13.312 0-24.608-4.608-33.888-13.76-9.28-9.184-13.952-20.416-13.952-33.696 0-13.536 4.704-24.992 14.112-34.368 9.376-9.408 20.768-14.112 34.176-14.112 13.28 0 24.64 4.704 34.016 14.112 9.408 9.376 14.080 20.832 14.080 34.368 0 13.152-4.704 24.384-14.176 33.568-9.376 9.248-20.864 13.888-34.368 13.888zM718.080 472.448c-4.992-5.056-10.88-7.552-17.632-7.552-6.88 0-12.672 2.496-17.44 7.488-4.736 4.928-7.168 10.944-7.168 17.952 0 6.88 2.432 12.704 7.328 17.536s10.752 7.232 17.632 7.232c6.752 0 12.576-2.368 17.44-7.136s7.328-10.624 7.328-17.632c0-6.912-2.496-12.832-7.488-17.888zM883.488 641.568c-17.056 3.392-27.776 13.344-40.192 25.76-16.32 16.32-36.672 36.672-75.296 36.672s-58.976-20.352-75.328-36.672c-15.232-15.264-27.296-27.328-52.672-27.328s-37.44 12.064-52.672 27.328c-16.352 16.32-36.704 36.672-75.328 36.672s-58.976-20.352-75.328-36.672c-15.232-15.264-27.296-27.328-52.672-27.328s-37.44 12.064-52.672 27.328c-16.352 16.32-36.704 36.672-75.328 36.672s-58.976-20.352-75.328-36.672c-12.384-12.416-23.104-22.368-40.16-25.76l-12.512 62.432h-96l128-576h704l128 576h-96l-12.512-62.432zM800 224h-576l-77.184 385.984c26.752 5.344 43.072 21.28 56.512 34.72 15.232 15.232 27.296 27.296 52.672 27.296s37.44-12.064 52.672-27.328c16.352-16.32 36.704-36.672 75.328-36.672s58.976 20.352 75.328 36.672c15.232 15.264 27.296 27.328 52.672 27.328s37.44-12.064 52.672-27.328c16.352-16.32 36.704-36.672 75.328-36.672s58.976 20.352 75.328 36.672c15.232 15.264 27.296 27.328 52.672 27.328s37.44-12.064 52.672-27.328c13.44-13.44 29.76-29.376 56.512-34.72l-77.184-385.952z" />
<glyph unicode="&#xe901;" glyph-name="a2" d="M355.328 538.592c-24.192 0-44.064-7.776-59.648-23.36-15.552-15.584-23.36-35.52-23.36-59.808 0-22.784 6.624-41.472 19.872-55.936 13.216-14.496 30.080-21.76 50.624-21.76 25.312 0 43.072 9.536 53.248 28.544 0.256-0.128 0.48-0.128 0.672 0 0-28.992-6.016-51.36-18.016-67.136s-28.864-23.616-50.528-23.616c-14.912 0-28.992 3.872-42.272 11.68v-34.56c12.704-5.824 27.776-8.736 45.216-8.736 32.992 0 58.752 12.32 77.312 36.928 18.56 24.672 27.872 59.648 27.872 105.024 0 36.768-7.168 64.768-21.408 83.968-14.272 19.168-34.144 28.768-59.584 28.768zM383.104 421.632c-7.84-7.936-17.44-11.936-28.768-11.936-13.056 0-23.392 4.384-31.040 13.056s-11.392 20.736-11.392 36.096c0 13.856 3.872 25.344 11.68 34.368 7.776 9.024 17.472 13.6 29.024 13.6 12.512 0 22.656-5.248 30.496-15.648s11.776-23.84 11.776-40.224c0-11.584-3.936-21.344-11.776-29.312zM539.424 439.424c-6.4 0-13.344-0.256-20.768-0.672v61.696h91.584v34.016h-126.656v-129.6c17.984 1.376 30.272 2.048 36.928 2.048 19.36 0 34.208-3.872 44.608-11.68s15.552-18.688 15.552-32.672c0-14.208-5.088-25.6-15.296-34.112-10.208-8.544-23.68-12.768-40.416-12.768-16.64 0-32.992 5.44-49.152 16.32v-38.304c11.808-6.784 29.76-10.144 53.824-10.144 28.512 0 50.944 7.328 67.296 22.080 16.32 14.72 24.48 34.272 24.48 58.688 0 23.264-7.136 41.6-21.376 55.008-14.272 13.376-34.464 20.096-60.608 20.096zM700.32 537.92c-13.312 0-24.608-4.608-33.888-13.76s-13.952-20.416-13.952-33.696c0-13.536 4.704-24.96 14.112-34.368 9.376-9.408 20.768-14.080 34.176-14.080 13.28 0 24.64 4.672 34.016 14.080s14.080 20.832 14.080 34.368c0 13.152-4.704 24.384-14.176 33.6-9.376 9.248-20.864 13.856-34.368 13.856zM718.080 472.448c-4.992-5.056-10.88-7.552-17.632-7.552-6.88 0-12.672 2.464-17.44 7.456-4.736 4.96-7.168 10.976-7.168 17.984 0 6.88 2.432 12.672 7.328 17.504s10.752 7.264 17.632 7.264c6.752 0 12.576-2.368 17.44-7.168 4.864-4.736 7.328-10.624 7.328-17.6 0-6.912-2.496-12.864-7.488-17.888zM352 96h320v-64h-320v64zM883.488 641.568c-17.056 3.392-27.776 13.344-40.192 25.76-16.32 16.32-36.672 36.672-75.296 36.672s-58.976-20.352-75.328-36.672c-15.232-15.264-27.296-27.328-52.672-27.328s-37.44 12.064-52.672 27.328c-16.352 16.32-36.704 36.672-75.328 36.672s-58.976-20.352-75.328-36.672c-15.232-15.264-27.296-27.328-52.672-27.328s-37.44 12.064-52.672 27.328c-16.352 16.32-36.704 36.672-75.328 36.672s-58.976-20.352-75.328-36.672c-12.384-12.416-23.104-22.368-40.16-25.76l-12.512 62.432h-96l128-576h704l128 576h-96l-12.512-62.432zM800 224h-576l-77.184 385.984c26.752 5.344 43.072 21.28 56.512 34.72 15.232 15.232 27.296 27.296 52.672 27.296s37.44-12.064 52.672-27.328c16.352-16.32 36.704-36.672 75.328-36.672s58.976 20.352 75.328 36.672c15.232 15.264 27.296 27.328 52.672 27.328s37.44-12.064 52.672-27.328c16.352-16.32 36.704-36.672 75.328-36.672s58.976 20.352 75.328 36.672c15.232 15.264 27.296 27.328 52.672 27.328s37.44-12.064 52.672-27.328c13.44-13.44 29.76-29.376 56.512-34.72l-77.184-385.952z" />
<glyph unicode="&#xe902;" glyph-name="a3" d="M269.216 500.448h120.16l-90.24-212.448h41.92l92.832 230.304v16.192h-164.672zM540.704 538.624c-28.288 0-49.952-11.2-64.928-33.536-15.040-22.336-22.528-55.296-22.528-98.848 0-39.616 7.2-69.952 21.568-90.912s34.4-31.456 60.096-31.456c27.488 0 48.864 11.008 64.192 32.928 15.296 21.952 22.944 53.76 22.944 95.456-0.032 84.256-27.104 126.368-81.344 126.368zM537.984 315.488c-29.312 0-44 30.848-44 92.512 0 65.888 14.976 98.816 44.864 98.816 28.32 0 42.432-32.448 42.432-97.28 0-62.656-14.432-94.048-43.296-94.048zM703.904 537.952c-13.312 0-24.608-4.608-33.888-13.76-9.28-9.184-13.952-20.416-13.952-33.696 0-13.536 4.704-24.992 14.112-34.368 9.376-9.408 20.768-14.112 34.176-14.112 13.28 0 24.64 4.704 34.016 14.112 9.408 9.376 14.080 20.832 14.080 34.368 0 13.152-4.704 24.384-14.176 33.568-9.376 9.248-20.864 13.888-34.368 13.888zM721.696 472.448c-4.992-5.056-10.88-7.552-17.632-7.552-6.88 0-12.672 2.496-17.44 7.488-4.736 4.928-7.168 10.944-7.168 17.952 0 6.88 2.432 12.704 7.328 17.536s10.752 7.232 17.632 7.232c6.752 0 12.576-2.368 17.44-7.136s7.328-10.624 7.328-17.632c-0.032-6.912-2.528-12.832-7.488-17.888zM883.488 641.568c-17.056 3.392-27.776 13.344-40.192 25.76-16.32 16.32-36.672 36.672-75.296 36.672s-58.976-20.352-75.328-36.672c-15.232-15.264-27.296-27.328-52.672-27.328s-37.44 12.064-52.672 27.328c-16.352 16.32-36.704 36.672-75.328 36.672s-58.976-20.352-75.328-36.672c-15.232-15.264-27.296-27.328-52.672-27.328s-37.44 12.064-52.672 27.328c-16.352 16.32-36.704 36.672-75.328 36.672s-58.976-20.352-75.328-36.672c-12.384-12.416-23.104-22.368-40.16-25.76l-12.512 62.432h-96l128-576h704l128 576h-96l-12.512-62.432zM800 224h-576l-77.184 385.984c26.752 5.344 43.072 21.28 56.512 34.72 15.232 15.232 27.296 27.296 52.672 27.296s37.44-12.064 52.672-27.328c16.352-16.32 36.704-36.672 75.328-36.672s58.976 20.352 75.328 36.672c15.232 15.264 27.296 27.328 52.672 27.328s37.44-12.064 52.672-27.328c16.352-16.32 36.704-36.672 75.328-36.672s58.976 20.352 75.328 36.672c15.232 15.264 27.296 27.328 52.672 27.328s37.44-12.064 52.672-27.328c13.44-13.44 29.76-29.376 56.512-34.72l-77.184-385.952z" />
<glyph unicode="&#xe903;" glyph-name="a4" d="M361.824 444.064c-25.536 0-43.872-10.304-55.008-30.944h-0.704c0 28.576 6.304 51.328 18.944 68.256 12.608 16.928 29.376 25.44 50.336 25.44 13.536 0 26.4-3.264 38.656-9.824v34.56c-10.4 4.672-24.576 7.072-42.432 7.072-31.84 0-57.44-12.896-76.736-38.688s-28.928-60.256-28.928-103.456c0-35.648 7.36-63.328 22.144-83.040 14.784-19.68 35.2-29.568 61.184-29.568 23.488 0 42.88 7.744 58.176 23.232 15.296 15.456 22.944 35.456 22.944 59.968 0 23.36-6.176 42.048-18.56 56.064-12.384 13.952-29.024 20.928-50.016 20.928zM379.36 329.184c-7.456-9.12-17.184-13.696-29.248-13.696-12.672 0-22.912 5.248-30.56 15.744-7.68 10.496-11.52 23.136-11.52 37.888 0 11.808 3.872 22.048 11.584 30.688 7.744 8.672 17.824 12.992 30.176 12.992 12.928 0 22.976-4.352 30.048-12.992 7.104-8.64 10.656-20.64 10.656-36 0.032-13.984-3.68-25.504-11.136-34.624zM546.624 538.624c-28.288 0-49.952-11.2-64.928-33.536-15.040-22.336-22.528-55.296-22.528-98.848 0-39.616 7.2-69.952 21.568-90.912s34.4-31.456 60.096-31.456c27.488 0 48.864 11.008 64.192 32.928 15.296 21.952 22.944 53.76 22.944 95.456-0.032 84.256-27.136 126.368-81.344 126.368zM543.872 315.488c-29.312 0-44 30.848-44 92.512 0 65.888 14.976 98.816 44.864 98.816 28.32 0 42.432-32.448 42.432-97.28 0.032-62.656-14.432-94.048-43.296-94.048zM709.824 537.952c-13.312 0-24.608-4.608-33.888-13.76-9.28-9.184-13.952-20.416-13.952-33.696 0-13.536 4.704-24.992 14.112-34.368 9.376-9.408 20.768-14.112 34.176-14.112 13.28 0 24.64 4.704 34.016 14.112 9.408 9.376 14.080 20.832 14.080 34.368 0 13.152-4.704 24.384-14.176 33.568-9.376 9.248-20.864 13.888-34.368 13.888zM727.584 472.448c-4.992-5.056-10.88-7.552-17.632-7.552-6.88 0-12.672 2.496-17.44 7.488-4.736 4.928-7.168 10.944-7.168 17.952 0 6.88 2.432 12.704 7.328 17.536s10.752 7.232 17.632 7.232c6.752 0 12.576-2.368 17.44-7.136s7.328-10.624 7.328-17.632c0-6.912-2.496-12.832-7.488-17.888zM883.488 641.568c-17.056 3.392-27.776 13.344-40.192 25.76-16.32 16.32-36.672 36.672-75.296 36.672s-58.976-20.352-75.328-36.672c-15.232-15.264-27.296-27.328-52.672-27.328s-37.44 12.064-52.672 27.328c-16.352 16.32-36.704 36.672-75.328 36.672s-58.976-20.352-75.328-36.672c-15.232-15.264-27.296-27.328-52.672-27.328s-37.44 12.064-52.672 27.328c-16.352 16.32-36.704 36.672-75.328 36.672s-58.976-20.352-75.328-36.672c-12.384-12.416-23.104-22.368-40.16-25.76l-12.512 62.432h-96l128-576h704l128 576h-96l-12.512-62.432zM800 224h-576l-77.184 385.984c26.752 5.344 43.072 21.28 56.512 34.72 15.232 15.232 27.296 27.296 52.672 27.296s37.44-12.064 52.672-27.328c16.352-16.32 36.704-36.672 75.328-36.672s58.976 20.352 75.328 36.672c15.232 15.264 27.296 27.328 52.672 27.328s37.44-12.064 52.672-27.328c16.352-16.32 36.704-36.672 75.328-36.672s58.976 20.352 75.328 36.672c15.232 15.264 27.296 27.328 52.672 27.328s37.44-12.064 52.672-27.328c13.44-13.44 29.76-29.376 56.512-34.72l-77.184-385.952z" />
<glyph unicode="&#xe904;" glyph-name="a5" d="M361.824 439.36c-25.536 0-43.872-10.304-55.008-30.944h-0.704c0 28.576 6.304 51.328 18.944 68.256 12.608 16.928 29.376 25.44 50.336 25.44 13.536 0 26.4-3.264 38.656-9.824v34.56c-10.4 4.672-24.576 7.072-42.432 7.072-31.84 0-57.44-12.896-76.736-38.688s-28.928-60.256-28.928-103.456c0-35.648 7.36-63.328 22.144-83.040 14.784-19.68 35.2-29.568 61.184-29.568 23.488 0 42.88 7.744 58.176 23.232 15.296 15.456 22.944 35.456 22.944 59.968 0 23.36-6.176 42.048-18.56 56.064-12.384 13.984-29.024 20.928-50.016 20.928zM379.36 324.512c-7.456-9.12-17.184-13.696-29.248-13.696-12.672 0-22.912 5.248-30.56 15.744-7.68 10.496-11.52 23.136-11.52 37.888 0 11.808 3.872 22.048 11.584 30.688 7.744 8.672 17.824 12.992 30.176 12.992 12.928 0 22.976-4.352 30.048-12.992 7.104-8.64 10.656-20.64 10.656-36 0.032-14.016-3.68-25.504-11.136-34.624zM546.624 533.952c-28.288 0-49.952-11.2-64.928-33.536-15.040-22.336-22.528-55.296-22.528-98.848 0-39.616 7.2-69.952 21.568-90.912s34.4-31.456 60.096-31.456c27.488 0 48.864 11.008 64.192 32.928 15.296 21.952 22.944 53.76 22.944 95.456-0.032 84.224-27.136 126.368-81.344 126.368zM543.872 310.816c-29.312 0-44 30.848-44 92.512 0 65.888 14.976 98.816 44.864 98.816 28.32 0 42.432-32.448 42.432-97.28 0.032-62.688-14.432-94.048-43.296-94.048zM709.824 533.248c-13.312 0-24.608-4.608-33.888-13.76-9.28-9.184-13.952-20.416-13.952-33.696 0-13.536 4.704-24.992 14.112-34.368 9.376-9.408 20.768-14.112 34.176-14.112 13.28 0 24.64 4.704 34.016 14.112 9.408 9.376 14.080 20.832 14.080 34.368 0 13.152-4.704 24.384-14.176 33.568-9.376 9.28-20.864 13.888-34.368 13.888zM727.584 467.744c-4.992-5.056-10.88-7.552-17.632-7.552-6.88 0-12.672 2.496-17.44 7.488-4.736 4.928-7.168 10.944-7.168 17.952 0 6.88 2.432 12.704 7.328 17.536s10.752 7.232 17.632 7.232c6.752 0 12.576-2.368 17.44-7.136s7.328-10.624 7.328-17.632c0-6.88-2.496-12.832-7.488-17.888zM352 91.328h320v-64h-320v64zM883.488 641.568c-17.056 3.392-27.776 13.344-40.192 25.76-16.32 16.32-36.672 36.672-75.296 36.672s-58.976-20.352-75.328-36.672c-15.232-15.264-27.296-27.328-52.672-27.328s-37.44 12.064-52.672 27.328c-16.352 16.32-36.704 36.672-75.328 36.672s-58.976-20.352-75.328-36.672c-15.232-15.264-27.296-27.328-52.672-27.328s-37.44 12.064-52.672 27.328c-16.352 16.32-36.704 36.672-75.328 36.672s-58.976-20.352-75.328-36.672c-12.384-12.416-23.104-22.368-40.16-25.76l-12.512 62.432h-96l128-576h704l128 576h-96l-12.512-62.432zM800 224h-576l-77.184 385.984c26.752 5.344 43.072 21.28 56.512 34.72 15.232 15.232 27.296 27.296 52.672 27.296s37.44-12.064 52.672-27.328c16.352-16.32 36.704-36.672 75.328-36.672s58.976 20.352 75.328 36.672c15.232 15.264 27.296 27.328 52.672 27.328s37.44-12.064 52.672-27.328c16.352-16.32 36.704-36.672 75.328-36.672s58.976 20.352 75.328 36.672c15.232 15.264 27.296 27.328 52.672 27.328s37.44-12.064 52.672-27.328c13.44-13.44 29.76-29.376 56.512-34.72l-77.184-385.952z" />
<glyph unicode="&#xe905;" glyph-name="a6" d="M341.92 439.424c-6.4 0-13.344-0.256-20.768-0.672v61.696h91.584v34.048h-126.688v-129.632c17.984 1.376 30.272 2.048 36.928 2.048 19.36 0 34.208-3.872 44.608-11.68 10.368-7.776 15.552-18.656 15.552-32.64 0-14.208-5.088-25.6-15.296-34.112-10.208-8.576-23.68-12.8-40.416-12.8-16.64 0-32.992 5.44-49.152 16.32v-38.304c11.808-6.752 29.76-10.112 53.824-10.112 28.512 0 50.944 7.328 67.296 22.048 16.32 14.752 24.48 34.304 24.48 58.688 0 23.296-7.136 41.632-21.376 55.008-14.272 13.408-34.464 20.096-60.576 20.096zM544.384 538.624c-28.288 0-49.952-11.2-64.928-33.536-15.040-22.336-22.528-55.296-22.528-98.848 0-39.616 7.2-69.952 21.568-90.912s34.4-31.456 60.096-31.456c27.488 0 48.864 11.008 64.192 32.928 15.296 21.952 22.944 53.76 22.944 95.456-0.032 84.256-27.136 126.368-81.344 126.368zM541.632 315.488c-29.312 0-44 30.848-44 92.512 0 65.888 14.976 98.816 44.864 98.816 28.32 0 42.432-32.448 42.432-97.28 0-62.656-14.432-94.048-43.296-94.048zM707.552 537.952c-13.312 0-24.608-4.608-33.888-13.76-9.28-9.184-13.952-20.416-13.952-33.696 0-13.536 4.704-24.992 14.112-34.368 9.376-9.408 20.768-14.112 34.176-14.112 13.28 0 24.64 4.704 34.016 14.112 9.408 9.376 14.080 20.832 14.080 34.368 0 13.152-4.704 24.384-14.176 33.568-9.344 9.248-20.864 13.888-34.368 13.888zM725.344 472.448c-4.992-5.056-10.88-7.552-17.632-7.552-6.88 0-12.672 2.496-17.44 7.488-4.736 4.928-7.168 10.944-7.168 17.952 0 6.88 2.432 12.704 7.328 17.536s10.752 7.232 17.632 7.232c6.752 0 12.576-2.368 17.44-7.136s7.328-10.624 7.328-17.632c-0.032-6.912-2.528-12.832-7.488-17.888zM883.488 641.568c-17.056 3.392-27.776 13.344-40.192 25.76-16.32 16.32-36.672 36.672-75.296 36.672s-58.976-20.352-75.328-36.672c-15.232-15.264-27.296-27.328-52.672-27.328s-37.44 12.064-52.672 27.328c-16.352 16.32-36.704 36.672-75.328 36.672s-58.976-20.352-75.328-36.672c-15.232-15.264-27.296-27.328-52.672-27.328s-37.44 12.064-52.672 27.328c-16.352 16.32-36.704 36.672-75.328 36.672s-58.976-20.352-75.328-36.672c-12.384-12.416-23.104-22.368-40.16-25.76l-12.512 62.432h-96l128-576h704l128 576h-96l-12.512-62.432zM800 224h-576l-77.184 385.984c26.752 5.344 43.072 21.28 56.512 34.72 15.232 15.232 27.296 27.296 52.672 27.296s37.44-12.064 52.672-27.328c16.352-16.32 36.704-36.672 75.328-36.672s58.976 20.352 75.328 36.672c15.232 15.264 27.296 27.328 52.672 27.328s37.44-12.064 52.672-27.328c16.352-16.32 36.704-36.672 75.328-36.672s58.976 20.352 75.328 36.672c15.232 15.264 27.296 27.328 52.672 27.328s37.44-12.064 52.672-27.328c13.44-13.44 29.76-29.376 56.512-34.72l-77.184-385.952z" />
<glyph unicode="&#xe906;" glyph-name="a7" d="M352 96h320v-64h-320v64zM341.92 439.424c-6.4 0-13.344-0.256-20.768-0.672v61.696h91.584v34.048h-126.688v-129.632c17.984 1.376 30.272 2.048 36.928 2.048 19.36 0 34.208-3.872 44.608-11.68 10.368-7.776 15.552-18.656 15.552-32.64 0-14.208-5.088-25.6-15.296-34.112-10.208-8.576-23.68-12.8-40.416-12.8-16.64 0-32.992 5.44-49.152 16.32v-38.304c11.808-6.752 29.76-10.112 53.824-10.112 28.512 0 50.944 7.328 67.296 22.048 16.32 14.752 24.48 34.304 24.48 58.688 0 23.296-7.136 41.632-21.376 55.008-14.272 13.408-34.464 20.096-60.576 20.096zM544.384 538.624c-28.288 0-49.952-11.2-64.928-33.536-15.040-22.336-22.528-55.296-22.528-98.848 0-39.616 7.2-69.952 21.568-90.912s34.4-31.456 60.096-31.456c27.488 0 48.864 11.008 64.192 32.928 15.296 21.952 22.944 53.76 22.944 95.456-0.032 84.256-27.136 126.368-81.344 126.368zM541.632 315.488c-29.312 0-44 30.848-44 92.512 0 65.888 14.976 98.816 44.864 98.816 28.32 0 42.432-32.448 42.432-97.28 0-62.656-14.432-94.048-43.296-94.048zM707.552 537.952c-13.312 0-24.608-4.608-33.888-13.76-9.28-9.184-13.952-20.416-13.952-33.696 0-13.536 4.704-24.992 14.112-34.368 9.376-9.408 20.768-14.112 34.176-14.112 13.28 0 24.64 4.704 34.016 14.112 9.408 9.376 14.080 20.832 14.080 34.368 0 13.152-4.704 24.384-14.176 33.568-9.344 9.248-20.864 13.888-34.368 13.888zM725.344 472.448c-4.992-5.056-10.88-7.552-17.632-7.552-6.88 0-12.672 2.496-17.44 7.488-4.736 4.928-7.168 10.944-7.168 17.952 0 6.88 2.432 12.704 7.328 17.536s10.752 7.232 17.632 7.232c6.752 0 12.576-2.368 17.44-7.136s7.328-10.624 7.328-17.632c-0.032-6.912-2.528-12.832-7.488-17.888zM883.488 641.568c-17.056 3.392-27.776 13.344-40.192 25.76-16.32 16.32-36.672 36.672-75.296 36.672s-58.976-20.352-75.328-36.672c-15.232-15.264-27.296-27.328-52.672-27.328s-37.44 12.064-52.672 27.328c-16.352 16.32-36.704 36.672-75.328 36.672s-58.976-20.352-75.328-36.672c-15.232-15.264-27.296-27.328-52.672-27.328s-37.44 12.064-52.672 27.328c-16.352 16.32-36.704 36.672-75.328 36.672s-58.976-20.352-75.328-36.672c-12.384-12.416-23.104-22.368-40.16-25.76l-12.512 62.432h-96l128-576h704l128 576h-96l-12.512-62.432zM800 224h-576l-77.184 385.984c26.752 5.344 43.072 21.28 56.512 34.72 15.232 15.232 27.296 27.296 52.672 27.296s37.44-12.064 52.672-27.328c16.352-16.32 36.704-36.672 75.328-36.672s58.976 20.352 75.328 36.672c15.232 15.264 27.296 27.328 52.672 27.328s37.44-12.064 52.672-27.328c16.352-16.32 36.704-36.672 75.328-36.672s58.976 20.352 75.328 36.672c15.232 15.264 27.296 27.328 52.672 27.328s37.44-12.064 52.672-27.328c13.44-13.44 29.76-29.376 56.512-34.72l-77.184-385.952z" />
<glyph unicode="&#xe907;" glyph-name="a8" d="M401.088 534.368h-42.624l-106.88-161.184v-25.824h112.064v-59.424h37.44v59.424h30.784v30.080h-30.784v156.928zM363.648 472.864v-95.392h-75.456l67.040 101.216c4.256 7.552 7.072 13.184 8.448 16.864h0.672c-0.48-8.352-0.704-15.936-0.704-22.688zM547.264 538.496c-28.288 0-49.952-11.168-64.928-33.504-15.040-22.336-22.528-55.296-22.528-98.816 0-39.648 7.2-69.984 21.568-90.944s34.4-31.424 60.096-31.424c27.488 0 48.864 10.944 64.192 32.864 15.296 21.984 22.944 53.824 22.944 95.488-0.032 84.256-27.136 126.336-81.344 126.336zM544.512 315.424c-29.312 0-44 30.816-44 92.448 0 65.92 14.976 98.848 44.864 98.848 28.32 0 42.432-32.416 42.432-97.28 0-62.688-14.432-94.016-43.296-94.016zM710.4 537.824c-13.312 0-24.608-4.576-33.888-13.76-9.28-9.152-13.952-20.384-13.952-33.696 0-13.504 4.704-24.96 14.112-34.368 9.376-9.376 20.768-14.048 34.176-14.048 13.28 0 24.64 4.672 34.016 14.048 9.408 9.408 14.080 20.864 14.080 34.368 0 13.184-4.704 24.384-14.176 33.632-9.376 9.216-20.864 13.824-34.368 13.824zM728.192 472.352c-4.992-5.024-10.88-7.552-17.632-7.552-6.88 0-12.672 2.464-17.44 7.456s-7.168 11.008-7.168 17.984c0 6.88 2.432 12.704 7.328 17.536s10.752 7.232 17.632 7.232c6.752 0 12.576-2.368 17.44-7.168 4.864-4.736 7.328-10.624 7.328-17.6-0.032-6.912-2.528-12.864-7.488-17.888zM883.488 641.568c-17.056 3.392-27.776 13.344-40.192 25.76-16.32 16.32-36.672 36.672-75.296 36.672s-58.976-20.352-75.328-36.672c-15.232-15.264-27.296-27.328-52.672-27.328s-37.44 12.064-52.672 27.328c-16.352 16.32-36.704 36.672-75.328 36.672s-58.976-20.352-75.328-36.672c-15.232-15.264-27.296-27.328-52.672-27.328s-37.44 12.064-52.672 27.328c-16.352 16.32-36.704 36.672-75.328 36.672s-58.976-20.352-75.328-36.672c-12.384-12.416-23.104-22.368-40.16-25.76l-12.512 62.432h-96l128-576h704l128 576h-96l-12.512-62.432zM800 224h-576l-77.184 385.984c26.752 5.344 43.072 21.28 56.512 34.72 15.232 15.232 27.296 27.296 52.672 27.296s37.44-12.064 52.672-27.328c16.352-16.32 36.704-36.672 75.328-36.672s58.976 20.352 75.328 36.672c15.232 15.264 27.296 27.328 52.672 27.328s37.44-12.064 52.672-27.328c16.352-16.32 36.704-36.672 75.328-36.672s58.976 20.352 75.328 36.672c15.232 15.264 27.296 27.328 52.672 27.328s37.44-12.064 52.672-27.328c13.44-13.44 29.76-29.376 56.512-34.72l-77.184-385.952z" />
<glyph unicode="&#xe908;" glyph-name="a9" d="M352 96h320v-64h-320v64zM401.088 534.496h-42.624l-106.88-161.248v-25.76h112.064v-59.488h37.44v59.488h30.784v30.048h-30.784v156.96zM363.648 472.928v-95.36h-75.456l67.040 101.248c4.256 7.552 7.072 13.152 8.448 16.8h0.672c-0.48-8.32-0.704-15.904-0.704-22.688zM547.264 538.624c-28.288 0-49.952-11.2-64.928-33.536-15.040-22.336-22.528-55.296-22.528-98.848 0-39.616 7.2-69.952 21.568-90.912s34.4-31.456 60.096-31.456c27.488 0 48.864 11.008 64.192 32.928 15.296 21.952 22.944 53.76 22.944 95.456-0.032 84.256-27.136 126.368-81.344 126.368zM544.512 315.488c-29.312 0-44 30.848-44 92.512 0 65.888 14.976 98.816 44.864 98.816 28.32 0 42.432-32.448 42.432-97.28 0-62.656-14.432-94.048-43.296-94.048zM710.4 537.952c-13.312 0-24.608-4.608-33.888-13.76-9.28-9.184-13.952-20.416-13.952-33.696 0-13.536 4.704-24.992 14.112-34.368 9.376-9.408 20.768-14.112 34.176-14.112 13.28 0 24.64 4.704 34.016 14.112 9.408 9.376 14.080 20.832 14.080 34.368 0 13.152-4.704 24.384-14.176 33.568-9.376 9.248-20.864 13.888-34.368 13.888zM728.192 472.448c-4.992-5.056-10.88-7.552-17.632-7.552-6.88 0-12.672 2.496-17.44 7.488-4.736 4.928-7.168 10.944-7.168 17.952 0 6.88 2.432 12.704 7.328 17.536s10.752 7.232 17.632 7.232c6.752 0 12.576-2.368 17.44-7.136s7.328-10.624 7.328-17.632c-0.032-6.912-2.528-12.832-7.488-17.888zM883.488 641.568c-17.056 3.392-27.776 13.344-40.192 25.76-16.32 16.32-36.672 36.672-75.296 36.672s-58.976-20.352-75.328-36.672c-15.232-15.264-27.296-27.328-52.672-27.328s-37.44 12.064-52.672 27.328c-16.352 16.32-36.704 36.672-75.328 36.672s-58.976-20.352-75.328-36.672c-15.232-15.264-27.296-27.328-52.672-27.328s-37.44 12.064-52.672 27.328c-16.352 16.32-36.704 36.672-75.328 36.672s-58.976-20.352-75.328-36.672c-12.384-12.416-23.104-22.368-40.16-25.76l-12.512 62.432h-96l128-576h704l128 576h-96l-12.512-62.432zM800 224h-576l-77.184 385.984c26.752 5.344 43.072 21.28 56.512 34.72 15.232 15.232 27.296 27.296 52.672 27.296s37.44-12.064 52.672-27.328c16.352-16.32 36.704-36.672 75.328-36.672s58.976 20.352 75.328 36.672c15.232 15.264 27.296 27.328 52.672 27.328s37.44-12.064 52.672-27.328c16.352-16.32 36.704-36.672 75.328-36.672s58.976 20.352 75.328 36.672c15.232 15.264 27.296 27.328 52.672 27.328s37.44-12.064 52.672-27.328c13.44-13.44 29.76-29.376 56.512-34.72l-77.184-385.952z" />
<glyph unicode="&#xe909;" glyph-name="a10" d="M352 96h320v-64h-320v64zM352 0h320v-64h-320v64zM401.088 534.496h-42.624l-106.88-161.248v-25.76h112.064v-59.488h37.44v59.488h30.784v30.048h-30.784v156.96zM363.648 472.928v-95.36h-75.456l67.040 101.248c4.256 7.552 7.072 13.152 8.448 16.8h0.672c-0.48-8.32-0.704-15.904-0.704-22.688zM547.264 538.624c-28.288 0-49.952-11.2-64.928-33.536-15.040-22.336-22.528-55.296-22.528-98.848 0-39.616 7.2-69.952 21.568-90.912s34.4-31.456 60.096-31.456c27.488 0 48.864 11.008 64.192 32.928 15.296 21.952 22.944 53.76 22.944 95.456-0.032 84.256-27.136 126.368-81.344 126.368zM544.512 315.488c-29.312 0-44 30.848-44 92.512 0 65.888 14.976 98.816 44.864 98.816 28.32 0 42.432-32.448 42.432-97.28 0-62.656-14.432-94.048-43.296-94.048zM710.4 537.952c-13.312 0-24.608-4.608-33.888-13.76-9.28-9.184-13.952-20.416-13.952-33.696 0-13.536 4.704-24.992 14.112-34.368 9.376-9.408 20.768-14.112 34.176-14.112 13.28 0 24.64 4.704 34.016 14.112 9.408 9.376 14.080 20.832 14.080 34.368 0 13.152-4.704 24.384-14.176 33.568-9.376 9.248-20.864 13.888-34.368 13.888zM728.192 472.448c-4.992-5.056-10.88-7.552-17.632-7.552-6.88 0-12.672 2.496-17.44 7.488-4.736 4.928-7.168 10.944-7.168 17.952 0 6.88 2.432 12.704 7.328 17.536s10.752 7.232 17.632 7.232c6.752 0 12.576-2.368 17.44-7.136s7.328-10.624 7.328-17.632c-0.032-6.912-2.528-12.832-7.488-17.888zM883.488 641.568c-17.056 3.392-27.776 13.344-40.192 25.76-16.32 16.32-36.672 36.672-75.296 36.672s-58.976-20.352-75.328-36.672c-15.232-15.264-27.296-27.328-52.672-27.328s-37.44 12.064-52.672 27.328c-16.352 16.32-36.704 36.672-75.328 36.672s-58.976-20.352-75.328-36.672c-15.232-15.264-27.296-27.328-52.672-27.328s-37.44 12.064-52.672 27.328c-16.352 16.32-36.704 36.672-75.328 36.672s-58.976-20.352-75.328-36.672c-12.384-12.416-23.104-22.368-40.16-25.76l-12.512 62.432h-96l128-576h704l128 576h-96l-12.512-62.432zM800 224h-576l-77.184 385.984c26.752 5.344 43.072 21.28 56.512 34.72 15.232 15.232 27.296 27.296 52.672 27.296s37.44-12.064 52.672-27.328c16.352-16.32 36.704-36.672 75.328-36.672s58.976 20.352 75.328 36.672c15.232 15.264 27.296 27.328 52.672 27.328s37.44-12.064 52.672-27.328c16.352-16.32 36.704-36.672 75.328-36.672s58.976 20.352 75.328 36.672c15.232 15.264 27.296 27.328 52.672 27.328s37.44-12.064 52.672-27.328c13.44-13.44 29.76-29.376 56.512-34.72l-77.184-385.952z" />
<glyph unicode="&#xe90a;" glyph-name="a11" d="M364.736 416.576v0.672c32.992 9.312 49.504 30.144 49.504 62.56 0 17.184-6.592 31.328-19.776 42.304-13.152 11.008-30.688 16.512-52.576 16.512-22.816 0-42.592-4.704-59.328-14.112v-35.36c14.56 11.776 30.048 17.696 46.56 17.696 29.568 0 44.384-12.128 44.384-36.448 0-26.368-18.976-39.52-56.896-39.52h-18.208v-31.968h19.072c42.752 0 64.128-14.016 64.128-41.952 0-12.704-4.896-22.816-14.688-30.24-9.824-7.424-22.912-11.2-39.296-11.2-20.16 0-38.272 6.368-54.304 19.104v-37.472c14.56-8.8 34.016-13.248 58.432-13.248 27.168 0 49.024 6.816 65.664 20.384s24.928 31.424 24.928 53.568c0 16.032-5.184 29.408-15.488 40.128-10.304 10.656-24.352 16.896-42.112 18.592zM544.896 538.624c-28.288 0-49.952-11.2-64.928-33.536-15.040-22.336-22.528-55.296-22.528-98.848 0-39.616 7.2-69.952 21.568-90.912s34.4-31.456 60.096-31.456c27.488 0 48.864 11.008 64.192 32.928 15.296 21.952 22.944 53.76 22.944 95.456-0.032 84.256-27.104 126.368-81.344 126.368zM542.144 315.488c-29.312 0-44 30.848-44 92.512 0 65.888 14.976 98.816 44.864 98.816 28.32 0 42.432-32.448 42.432-97.28 0.032-62.656-14.4-94.048-43.296-94.048zM708.096 537.952c-13.312 0-24.608-4.608-33.888-13.76-9.28-9.184-13.952-20.416-13.952-33.696 0-13.536 4.704-24.992 14.112-34.368 9.376-9.408 20.768-14.112 34.176-14.112 13.28 0 24.64 4.704 34.016 14.112 9.408 9.376 14.080 20.832 14.080 34.368 0 13.152-4.704 24.384-14.176 33.568-9.376 9.248-20.864 13.888-34.368 13.888zM725.888 472.448c-4.992-5.056-10.88-7.552-17.632-7.552-6.88 0-12.672 2.496-17.44 7.488-4.736 4.928-7.168 10.944-7.168 17.952 0 6.88 2.432 12.704 7.328 17.536s10.752 7.232 17.632 7.232c6.752 0 12.576-2.368 17.44-7.136s7.328-10.624 7.328-17.632c-0.032-6.912-2.528-12.832-7.488-17.888zM883.488 641.568c-17.056 3.392-27.776 13.344-40.192 25.76-16.32 16.32-36.672 36.672-75.296 36.672s-58.976-20.352-75.328-36.672c-15.232-15.264-27.296-27.328-52.672-27.328s-37.44 12.064-52.672 27.328c-16.352 16.32-36.704 36.672-75.328 36.672s-58.976-20.352-75.328-36.672c-15.232-15.264-27.296-27.328-52.672-27.328s-37.44 12.064-52.672 27.328c-16.352 16.32-36.704 36.672-75.328 36.672s-58.976-20.352-75.328-36.672c-12.384-12.416-23.104-22.368-40.16-25.76l-12.512 62.432h-96l128-576h704l128 576h-96l-12.512-62.432zM800 224h-576l-77.184 385.984c26.752 5.344 43.072 21.28 56.512 34.72 15.232 15.232 27.296 27.296 52.672 27.296s37.44-12.064 52.672-27.328c16.352-16.32 36.704-36.672 75.328-36.672s58.976 20.352 75.328 36.672c15.232 15.264 27.296 27.328 52.672 27.328s37.44-12.064 52.672-27.328c16.352-16.32 36.704-36.672 75.328-36.672s58.976 20.352 75.328 36.672c15.232 15.264 27.296 27.328 52.672 27.328s37.44-12.064 52.672-27.328c13.44-13.44 29.76-29.376 56.512-34.72l-77.184-385.952z" />
<glyph unicode="&#xe90b;" glyph-name="a12" d="M352 96h320v-64h-320v64zM364.736 416.576v0.672c32.992 9.312 49.504 30.144 49.504 62.56 0 17.184-6.592 31.328-19.776 42.304-13.152 11.008-30.688 16.512-52.576 16.512-22.816 0-42.592-4.704-59.328-14.112v-35.36c14.56 11.776 30.048 17.696 46.56 17.696 29.568 0 44.384-12.128 44.384-36.448 0-26.368-18.976-39.52-56.896-39.52h-18.208v-31.968h19.072c42.752 0 64.128-14.016 64.128-41.952 0-12.704-4.896-22.816-14.688-30.24-9.824-7.424-22.912-11.2-39.296-11.2-20.16 0-38.272 6.368-54.304 19.104v-37.472c14.56-8.8 34.016-13.248 58.432-13.248 27.168 0 49.024 6.816 65.664 20.384s24.928 31.424 24.928 53.568c0 16.032-5.184 29.408-15.488 40.128-10.304 10.656-24.352 16.896-42.112 18.592zM544.896 538.624c-28.288 0-49.952-11.2-64.928-33.536-15.040-22.336-22.528-55.296-22.528-98.848 0-39.616 7.2-69.952 21.568-90.912s34.4-31.456 60.096-31.456c27.488 0 48.864 11.008 64.192 32.928 15.296 21.952 22.944 53.76 22.944 95.456-0.032 84.256-27.104 126.368-81.344 126.368zM542.144 315.488c-29.312 0-44 30.848-44 92.512 0 65.888 14.976 98.816 44.864 98.816 28.32 0 42.432-32.448 42.432-97.28 0.032-62.656-14.4-94.048-43.296-94.048zM708.096 537.952c-13.312 0-24.608-4.608-33.888-13.76-9.28-9.184-13.952-20.416-13.952-33.696 0-13.536 4.704-24.992 14.112-34.368 9.376-9.408 20.768-14.112 34.176-14.112 13.28 0 24.64 4.704 34.016 14.112 9.408 9.376 14.080 20.832 14.080 34.368 0 13.152-4.704 24.384-14.176 33.568-9.376 9.248-20.864 13.888-34.368 13.888zM725.888 472.448c-4.992-5.056-10.88-7.552-17.632-7.552-6.88 0-12.672 2.496-17.44 7.488-4.736 4.928-7.168 10.944-7.168 17.952 0 6.88 2.432 12.704 7.328 17.536s10.752 7.232 17.632 7.232c6.752 0 12.576-2.368 17.44-7.136s7.328-10.624 7.328-17.632c-0.032-6.912-2.528-12.832-7.488-17.888zM883.488 641.568c-17.056 3.392-27.776 13.344-40.192 25.76-16.32 16.32-36.672 36.672-75.296 36.672s-58.976-20.352-75.328-36.672c-15.232-15.264-27.296-27.328-52.672-27.328s-37.44 12.064-52.672 27.328c-16.352 16.32-36.704 36.672-75.328 36.672s-58.976-20.352-75.328-36.672c-15.232-15.264-27.296-27.328-52.672-27.328s-37.44 12.064-52.672 27.328c-16.352 16.32-36.704 36.672-75.328 36.672s-58.976-20.352-75.328-36.672c-12.384-12.416-23.104-22.368-40.16-25.76l-12.512 62.432h-96l128-576h704l128 576h-96l-12.512-62.432zM800 224h-576l-77.184 385.984c26.752 5.344 43.072 21.28 56.512 34.72 15.232 15.232 27.296 27.296 52.672 27.296s37.44-12.064 52.672-27.328c16.352-16.32 36.704-36.672 75.328-36.672s58.976 20.352 75.328 36.672c15.232 15.264 27.296 27.328 52.672 27.328s37.44-12.064 52.672-27.328c16.352-16.32 36.704-36.672 75.328-36.672s58.976 20.352 75.328 36.672c15.232 15.264 27.296 27.328 52.672 27.328s37.44-12.064 52.672-27.328c13.44-13.44 29.76-29.376 56.512-34.72l-77.184-385.952z" />
<glyph unicode="&#xe90c;" glyph-name="a13" d="M352 96h320v-64h-320v64zM352 0h320v-64h-320v64zM364.736 416.576v0.672c32.992 9.312 49.504 30.144 49.504 62.56 0 17.184-6.592 31.328-19.776 42.304-13.152 11.008-30.688 16.512-52.576 16.512-22.816 0-42.592-4.704-59.328-14.112v-35.36c14.56 11.776 30.048 17.696 46.56 17.696 29.568 0 44.384-12.128 44.384-36.448 0-26.368-18.976-39.52-56.896-39.52h-18.208v-31.968h19.072c42.752 0 64.128-14.016 64.128-41.952 0-12.704-4.896-22.816-14.688-30.24-9.824-7.424-22.912-11.2-39.296-11.2-20.16 0-38.272 6.368-54.304 19.104v-37.472c14.56-8.8 34.016-13.248 58.432-13.248 27.168 0 49.024 6.816 65.664 20.384s24.928 31.424 24.928 53.568c0 16.032-5.184 29.408-15.488 40.128-10.304 10.656-24.352 16.896-42.112 18.592zM544.896 538.624c-28.288 0-49.952-11.2-64.928-33.536-15.040-22.336-22.528-55.296-22.528-98.848 0-39.616 7.2-69.952 21.568-90.912s34.4-31.456 60.096-31.456c27.488 0 48.864 11.008 64.192 32.928 15.296 21.952 22.944 53.76 22.944 95.456-0.032 84.256-27.104 126.368-81.344 126.368zM542.144 315.488c-29.312 0-44 30.848-44 92.512 0 65.888 14.976 98.816 44.864 98.816 28.32 0 42.432-32.448 42.432-97.28 0.032-62.656-14.4-94.048-43.296-94.048zM708.096 537.952c-13.312 0-24.608-4.608-33.888-13.76-9.28-9.184-13.952-20.416-13.952-33.696 0-13.536 4.704-24.992 14.112-34.368 9.376-9.408 20.768-14.112 34.176-14.112 13.28 0 24.64 4.704 34.016 14.112 9.408 9.376 14.080 20.832 14.080 34.368 0 13.152-4.704 24.384-14.176 33.568-9.376 9.248-20.864 13.888-34.368 13.888zM725.888 472.448c-4.992-5.056-10.88-7.552-17.632-7.552-6.88 0-12.672 2.496-17.44 7.488-4.736 4.928-7.168 10.944-7.168 17.952 0 6.88 2.432 12.704 7.328 17.536s10.752 7.232 17.632 7.232c6.752 0 12.576-2.368 17.44-7.136s7.328-10.624 7.328-17.632c-0.032-6.912-2.528-12.832-7.488-17.888zM883.488 641.568c-17.056 3.392-27.776 13.344-40.192 25.76-16.32 16.32-36.672 36.672-75.296 36.672s-58.976-20.352-75.328-36.672c-15.232-15.264-27.296-27.328-52.672-27.328s-37.44 12.064-52.672 27.328c-16.352 16.32-36.704 36.672-75.328 36.672s-58.976-20.352-75.328-36.672c-15.232-15.264-27.296-27.328-52.672-27.328s-37.44 12.064-52.672 27.328c-16.352 16.32-36.704 36.672-75.328 36.672s-58.976-20.352-75.328-36.672c-12.384-12.416-23.104-22.368-40.16-25.76l-12.512 62.432h-96l128-576h704l128 576h-96l-12.512-62.432zM800 224h-576l-77.184 385.984c26.752 5.344 43.072 21.28 56.512 34.72 15.232 15.232 27.296 27.296 52.672 27.296s37.44-12.064 52.672-27.328c16.352-16.32 36.704-36.672 75.328-36.672s58.976 20.352 75.328 36.672c15.232 15.264 27.296 27.328 52.672 27.328s37.44-12.064 52.672-27.328c16.352-16.32 36.704-36.672 75.328-36.672s58.976 20.352 75.328 36.672c15.232 15.264 27.296 27.328 52.672 27.328s37.44-12.064 52.672-27.328c13.44-13.44 29.76-29.376 56.512-34.72l-77.184-385.952z" />
<glyph unicode="&#xe90d;" glyph-name="a14" d="M320 544c0-51.52 36.096-72.8 64-60.64v-131.36c0-62.304 52.64-79.712 80-48.832 17.824-20.064 46.176-20.064 64 0 8.896-10.048 20.512-15.168 32-15.168 23.84 0 48 22.016 48 64v99.36c17.92-7.744 38.464-1.408 50.816 15.040 8.608 11.52 13.184 27.296 13.184 45.6v128c0 98.976-14.816 161.216-24.8 192h-33.92c8.064-21.728 26.72-83.68 26.72-192v-128c0-11.2-2.4-20.576-6.816-26.4-9.12-12.352-25.184-3.040-25.184 26.4v80h-32v-240c0-41.568-32-41.568-32 0v208h-32v-208c0-41.568-32-41.568-32 0v208h-32v-208c0-41.568-32-41.568-32 0v288h-32v-96c0-41.568-32-41.568-32 0v128c0 56.672 81.088 131.68 117.408 160h-49.376c-39.872-36.16-100.032-100.576-100.032-160v-128zM883.488 641.568c-17.056 3.392-27.776 13.344-40.192 25.76-16.32 16.32-36.672 36.672-75.296 36.672-30.304 0-49.312-12.544-64-25.856v-44.32c4.032 3.616 7.776 7.328 11.328 10.848 15.232 15.264 27.296 27.328 52.672 27.328s37.44-12.064 52.672-27.328c13.44-13.44 29.76-29.376 56.512-34.72l-77.184-385.952h-576l-77.184 385.984c26.752 5.344 43.072 21.28 56.512 34.72 15.232 15.232 27.296 27.296 52.672 27.296 13.728 0 23.456-3.68 32-9.344v35.648c-9.12 3.456-19.52 5.696-32 5.696-38.624 0-58.976-20.352-75.328-36.672-12.384-12.416-23.104-22.368-40.16-25.76l-12.512 62.432h-96l128-576h704l128 576h-96l-12.512-62.432z" />
<glyph unicode="&#xe90e;" glyph-name="a15" d="M1024 637.312l-32 66.688h-96l-11.232-56-8.16-4.256c-13.12 4.48-22.72 12.96-33.312 23.552-16.32 16.352-36.672 36.704-75.296 36.704s-58.976-20.352-75.328-36.672c-15.232-15.264-27.296-27.328-52.672-27.328s-37.44 12.064-52.672 27.328c-16.352 16.32-36.704 36.672-75.328 36.672s-58.976-20.352-75.328-36.672c-15.232-15.264-27.296-27.328-52.672-27.328s-37.44 12.064-52.672 27.328c-16.352 16.32-36.704 36.672-75.328 36.672s-58.976-20.352-75.328-36.672c-10.592-10.624-20.16-19.104-33.312-23.584l-8.128 4.256-11.232 56h-96l-32-66.688 53.056-28.16 78.752-354.368-99.808-52.128 32-74.656 85.888 45.568 10.112-45.568h704l10.112 45.568 85.888-45.568 32 74.656-99.808 52.128 78.752 354.368 53.056 28.16zM203.328 644.672c15.232 15.264 27.296 27.328 52.672 27.328s37.44-12.064 52.672-27.328c16.352-16.32 36.704-36.672 75.328-36.672s58.976 20.352 75.328 36.672c15.232 15.264 27.296 27.328 52.672 27.328s37.44-12.064 52.672-27.328c16.352-16.32 36.704-36.672 75.328-36.672s58.976 20.352 75.328 36.672c15.232 15.264 27.296 27.328 52.672 27.328s37.44-12.064 52.672-27.328c6.24-6.24 13.216-12.928 21.472-18.944l-330.144-172.416-330.144 172.448c8.224 5.984 15.2 12.672 21.472 18.912zM158.112 553.44l270.624-143.584-219.040-114.368-51.584 257.952zM244.928 224l267.072 141.696 267.072-141.696h-534.144zM814.272 295.456l-219.040 114.368 270.624 143.584-51.584-257.952z" />
<glyph unicode="&#xe90f;" glyph-name="b1" d="M928 128l-128 480c0 0 0 64-96 64s-512 0-512 0l32-64c0 0 384-32 448-32s64-64 64-64l10.656-64c-91.424 0-239.968 0-362.656 0-256 0-288-320-288-320h832zM174.432 192c22.88 77.888 78.688 192 209.568 192h373.344l32-192h-614.912zM576 288c0-35.346-28.654-64-64-64s-64 28.654-64 64c0 35.346 28.654 64 64 64s64-28.654 64-64z" />
<glyph unicode="&#xe910;" glyph-name="b2" d="M928 128l-128 480c0 0 0 64-96 64s-512 0-512 0l32-64c0 0 384-32 448-32s64-64 64-64l10.656-64c-91.424 0-239.968 0-362.656 0-256 0-288-320-288-320h832zM174.432 192c22.88 77.888 78.688 192 209.568 192h373.344l32-192h-614.912zM672 288c0-35.346-28.654-64-64-64s-64 28.654-64 64c0 35.346 28.654 64 64 64s64-28.654 64-64zM512 288c0-35.346-28.654-64-64-64s-64 28.654-64 64c0 35.346 28.654 64 64 64s64-28.654 64-64z" />
<glyph unicode="&#xe911;" glyph-name="b3" d="M928 128l-128 480c0 0 0 64-96 64s-512 0-512 0l32-64c0 0 384-32 448-32s64-64 64-64l10.656-64c-91.424 0-239.968 0-362.656 0-256 0-288-320-288-320h832zM174.432 192c22.88 77.888 78.688 192 209.568 192h373.344l32-192h-614.912zM736 288c0-35.346-28.654-64-64-64s-64 28.654-64 64c0 35.346 28.654 64 64 64s64-28.654 64-64zM576 288c0-35.346-28.654-64-64-64s-64 28.654-64 64c0 35.346 28.654 64 64 64s64-28.654 64-64zM416 288c0-35.346-28.654-64-64-64s-64 28.654-64 64c0 35.346 28.654 64 64 64s64-28.654 64-64z" />
<glyph unicode="&#xe912;" glyph-name="b4" d="M992 480l-32 74.656-128.864-63.328-31.136 116.672c0 0 0 64-96 64s-512 0-512 0l32-64c0 0 384-32 448-32s64-64 64-64l10.368-62.304-3.424-1.696c-91.68 0-237.824 0-358.944 0-29.216 0-55.392-4.352-79.072-11.712l-240.928 118.368-32-74.656 188.288-90.88c-100.384-86.432-121.696-239.392-124.032-258.88l-64.256-31.552 32-66.688 198.848 96h498.304l198.848-96 32 66.688-64.672 31.776-75.232 281.984 139.904 67.552zM612.672 384l-100.672-49.472-100.672 49.472h201.344zM174.432 192c16.064 54.656 48.48 127.008 111.52 165.408l137.472-66.368-201.504-99.040h-47.488zM395.424 192l116.576 56.288 116.576-56.288h-233.152zM788.224 198.816l-187.648 92.224 159.424 76.96 28.224-169.184z" />
<glyph unicode="&#xe913;" glyph-name="c1" d="M512 128c194.4 0 352 157.6 352 352s-157.6 352-352 352-352-157.6-352-352 157.6-352 352-352zM512 768c159.072 0 288-128.928 288-288s-128.928-288-288-288-288 128.928-288 288 128.928 288 288 288zM465.92 424.64h47.744c40.352 0 72.352 11.072 96 33.248 23.648 22.144 35.488 50.656 35.488 85.504 0 34.816-11.328 61.824-33.984 80.992-22.656 19.136-54.592 28.736-95.776 28.736h-108.736v-358.496h59.264v130.016zM465.92 604.128h43.264c48.992 0 73.504-21.088 73.504-63.264 0-21.504-6.656-38.176-20-49.984-13.344-11.84-32.736-17.76-58.24-17.76h-38.528v131.008z" />
<glyph unicode="&#xe914;" glyph-name="c2" d="M352 96h320v-64h-320v64zM512 128c194.4 0 352 157.6 352 352s-157.6 352-352 352-352-157.6-352-352 157.6-352 352-352zM512 768c159.072 0 288-128.928 288-288s-128.928-288-288-288-288 128.928-288 288 128.928 288 288 288zM465.92 424.64h47.744c40.352 0 72.352 11.104 96 33.248 23.648 22.176 35.488 50.688 35.488 85.504 0 34.848-11.328 61.856-33.984 80.992-22.656 19.2-54.592 28.736-95.744 28.736h-108.736v-358.496h59.264v130.016zM465.92 604.128h43.264c48.992 0 73.504-21.056 73.504-63.264 0-21.504-6.656-38.144-20-49.984-13.344-11.808-32.736-17.76-58.24-17.76h-38.528v131.008z" />
<glyph unicode="&#xe915;" glyph-name="c3" d="M512 128c194.4 0 352 157.6 352 352s-157.6 352-352 352-352-157.6-352-352 157.6-352 352-352zM512 768c159.072 0 288-128.928 288-288s-128.928-288-288-288-288 128.928-288 288 128.928 288 288 288zM487.168 444.64h123.488v50.24h-123.488v107.744h133.984v50.496h-193.504v-358.496h59.52z" />
<glyph unicode="&#xe916;" glyph-name="c4" d="M352 96h320v-64h-320v64zM512 128c194.4 0 352 157.6 352 352s-157.6 352-352 352-352-157.6-352-352 157.6-352 352-352zM512 768c159.072 0 288-128.928 288-288s-128.928-288-288-288-288 128.928-288 288 128.928 288 288 288zM487.168 444.64h123.488v50.24h-123.488v107.744h133.984v50.496h-193.504v-358.496h59.52z" />
<glyph unicode="&#xe917;" glyph-name="c5" d="M512 832c-194.4 0-352-157.6-352-352s157.6-352 352-352 352 157.6 352 352-157.6 352-352 352zM512 192c-159.072 0-288 128.928-288 288s128.928 288 288 288 288-128.928 288-288-128.928-288-288-288zM669.76 608.32l-55.776-230.56c-2.912-11.936-4.608-21.568-5.024-28.864h-0.864c-1.024 10.816-2.56 20.128-4.608 28l-59.488 231.424h-53.6l-64.32-229.696c-3.488-12.672-5.536-22.752-6.112-30.176h-1.088c-0.608 10.496-2.016 20.576-4.384 30.176l-56.864 229.696h-57.12l87.712-313.696h60.16l59.936 219.872c2.784 9.76 4.544 19.808 5.248 30.176h0.864c0.608-11.104 2.112-21.312 4.608-30.624l59.712-219.424h58.848l85.984 313.696h-53.824z" />
<glyph unicode="&#xe918;" glyph-name="c6" d="M352 96h320v-64h-320v64zM512 832c-194.4 0-352-157.6-352-352s157.6-352 352-352 352 157.6 352 352-157.6 352-352 352zM512 192c-159.072 0-288 128.928-288 288s128.928 288 288 288 288-128.928 288-288-128.928-288-288-288zM669.76 608.32l-55.776-230.56c-2.912-11.936-4.608-21.568-5.024-28.864h-0.864c-1.024 10.816-2.56 20.128-4.608 28l-59.488 231.424h-53.6l-64.32-229.696c-3.488-12.672-5.536-22.752-6.112-30.176h-1.088c-0.608 10.496-2.016 20.576-4.384 30.176l-56.864 229.696h-57.12l87.712-313.696h60.16l59.936 219.872c2.784 9.76 4.544 19.808 5.248 30.176h0.864c0.608-11.104 2.112-21.312 4.608-30.624l59.712-219.424h58.848l85.984 313.696h-53.824z" />
<glyph unicode="&#xe919;" glyph-name="c7" d="M352 96h320v-64h-320v64zM352 0h320v-64h-320v64zM864 480c0 194.4-157.6 352-352 352s-352-157.6-352-352 157.6-352 352-352 352 157.6 352 352zM512 192c-159.072 0-288 128.928-288 288s128.928 288 288 288 288-128.928 288-288-128.928-288-288-288zM669.76 608.32l-55.776-230.56c-2.912-11.936-4.608-21.568-5.024-28.864h-0.864c-1.024 10.816-2.56 20.128-4.608 28l-59.488 231.424h-53.6l-64.32-229.696c-3.488-12.672-5.536-22.752-6.112-30.176h-1.088c-0.608 10.496-2.016 20.576-4.384 30.176l-56.864 229.696h-57.12l87.712-313.696h60.16l59.936 219.872c2.784 9.76 4.544 19.808 5.248 30.176h0.864c0.608-11.104 2.112-21.312 4.608-30.624l59.712-219.424h58.848l85.984 313.696h-53.824z" />
<glyph unicode="&#xe91a;" glyph-name="c8" d="M512 128c194.4 0 352 157.6 352 352s-157.6 352-352 352-352-157.6-352-352 157.6-352 352-352zM512 768c159.072 0 288-128.928 288-288s-128.928-288-288-288-288 128.928-288 288 128.928 288 288 288zM440.416 385.888h140.992l32.256-91.264h65.248l-133.248 358.496h-67.008l-134.24-358.496h64.992l31.008 91.264zM505.152 577.376c1.856 5.504 3.488 12.992 4.992 22.496h0.992c1.664-10.304 3.264-17.824 4.736-22.496l49.76-143.008h-109.76l49.28 143.008z" />
<glyph unicode="&#xe91b;" glyph-name="c9" d="M512 128c194.4 0 352 157.6 352 352s-157.6 352-352 352-352-157.6-352-352 157.6-352 352-352zM512 768c159.072 0 288-128.928 288-288s-128.928-288-288-288c-159.072 0-288 128.928-288 288s128.928 288 288 288zM440.416 385.888h140.992l32.256-91.264h65.248l-133.248 358.496h-67.008l-134.24-358.496h64.992l31.008 91.264zM505.152 577.376c1.856 5.504 3.488 12.992 4.992 22.496h0.992c1.664-10.304 3.264-17.824 4.736-22.496l49.76-143.008h-109.76l49.28 143.008zM352 96h320v-64h-320v64z" />
<glyph unicode="&#xe91c;" glyph-name="c10" d="M128 160l120.928 86.688c64.512-72.672 158.304-118.688 263.072-118.688 104.416 0 197.952 45.728 262.4 117.952l121.6-85.952 32 66.688-110.368 79.104c29.344 51.392 46.368 110.784 46.368 174.208s-17.024 122.816-46.368 174.208l110.368 79.104-32 66.688-121.6-85.952c-64.448 72.224-157.984 117.952-262.4 117.952-104.768 0-198.56-46.016-263.072-118.688l-120.928 86.688-32-74.624 107.456-75.968c-27.648-50.24-43.456-107.968-43.456-169.408s15.808-119.168 43.456-169.408l-107.456-75.968 32-74.624zM512 192c-83.328 0-158.144 35.584-210.752 92.16l208.064 149.12 212.48-150.144c-52.544-55.968-126.976-91.136-209.792-91.136zM800 480c0-49.536-12.544-96.128-34.528-136.8l-190.944 136.8 190.944 136.8c21.984-40.672 34.528-87.264 34.528-136.8zM512 768c82.816 0 157.248-35.168 209.792-91.136l-212.48-150.144-208.064 149.12c52.608 56.576 127.424 92.16 210.752 92.16zM224 480c0 47.648 11.776 92.512 32.288 132.128l186.912-132.128-186.912-132.128c-20.512 39.616-32.288 84.48-32.288 132.128z" />
<glyph unicode="&#xe91d;" glyph-name="d1" d="M128 64h768v768h-768v-768zM724.064 736c-60.736-40.384-133.632-64-212.064-64s-151.328 23.616-212.064 64h424.128zM224 713.568c77.824-65.728 178.112-105.568 288-105.568s210.176 39.84 288 105.568v-553.568h-576v553.568z" />
<glyph unicode="&#xe91e;" glyph-name="d2" d="M128 64h768v768h-768v-768zM224 736h576v-576h-576v576zM480 640h64v-384h-64v384zM320 640h64v-384h-64v384zM640 640h64v-384h-64v384z" />
<glyph unicode="&#xe91f;" glyph-name="d3" d="M128 64h768v768h-768v-768zM224 736h576v-576h-576v576zM320 480h384v-64h-384v64z" />
<glyph unicode="&#xe920;" glyph-name="d4" d="M128 64h768v768h-768v-768zM224 736h128l-128-128v128zM224 544l192 192h64l-256-256v64zM224 416l321.28 320h254.72v-576h-576v256z" />
<glyph unicode="&#xe921;" glyph-name="e1" d="M512 832l-416-704h832l-416 704zM512 672l256-448h-512l256 448z" />
<glyph unicode="&#xe922;" glyph-name="e2" d="M716.704 485.568l275.296 143.776-32 74.656-283.488-150.4-164.512 278.4-164.512-278.4-283.488 150.4-32-74.656 275.296-143.776-110.016-186.208-197.28-104.672 32-66.688 92.576 48.352-28.576-48.352h832l-28.576 48.352 92.576-48.352 32 66.688-197.248 104.672-110.048 186.208zM680.672 376.832l-85.408 45.312 45.856 23.936 39.552-69.248zM512 672l90.176-157.856-90.176-47.84-90.176 47.84 90.176 157.856zM382.912 446.080l45.856-23.936-85.408-45.312 39.552 69.248zM768 224h-512l17.088 29.92 238.912 124.768 238.912-124.768 17.088-29.92z" />
<glyph unicode="&#xe923;" glyph-name="e3" d="M512 832l-416-704h832l-416 704zM256 224l256 448 50.688-88.704-193.472-359.296h-113.216zM401.216 224l177.952 330.464 65.92-115.328-115.872-215.136h-128zM661.536 410.272l106.464-186.272h-206.784l100.32 186.272z" />
<glyph unicode="&#xe924;" glyph-name="f1" d="M896 832h-768v-768h768v768zM800 448v-288h-576v576h576v-288zM512 736c-159.072 0-288-128.928-288-288s128.928-288 288-288 288 128.928 288 288-128.928 288-288 288zM512 192c-141.376 0-256 114.624-256 256s114.624 256 256 256 256-114.624 256-256-114.624-256-256-256zM480 448c0-35.346-28.654-64-64-64s-64 28.654-64 64c0 35.346 28.654 64 64 64s64-28.654 64-64zM672 448c0-35.346-28.654-64-64-64s-64 28.654-64 64c0 35.346 28.654 64 64 64s64-28.654 64-64z" />
<glyph unicode="&#xe925;" glyph-name="f2" d="M896 832h-768v-768h768v768zM800 448v-288h-576v576h576v-288zM512 736c-159.072 0-288-128.928-288-288s128.928-288 288-288 288 128.928 288 288-128.928 288-288 288zM512 192c-141.376 0-256 114.624-256 256s114.624 256 256 256 256-114.624 256-256-114.624-256-256-256zM576 448c0-35.346-28.654-64-64-64s-64 28.654-64 64c0 35.346 28.654 64 64 64s64-28.654 64-64z" />
<glyph unicode="&#xe926;" glyph-name="f3" d="M992 661.344l-32 74.656-64-35.136v131.136h-768v-131.136l-64 35.136-32-74.656 96-51.872v-330.112l-96-52.672 32-66.688 64 34.56v-130.56h768v130.56l64-34.56 32 66.688-96 52.672v330.112l96 51.872zM224 736h576v-87.808l-55.616-30.528c-52.416 71.616-136.864 118.336-232.384 118.336s-179.968-46.72-232.384-118.336l-55.616 30.528v87.808zM768 448c0-31.488-5.984-61.536-16.384-89.408l-158.72 87.136 160.544 86.752c9.28-26.496 14.56-54.848 14.56-84.48zM256 448c0 29.632 5.28 57.984 14.56 84.48l160.544-86.752-158.72-87.136c-10.4 27.872-16.384 57.92-16.384 89.408zM512 402.016l202.944-109.664c-46.784-60.928-120.192-100.352-202.944-100.352s-156.16 39.424-202.944 100.384l202.944 109.632zM512 490.112l-204.064 112c46.752 61.792 120.64 101.888 204.064 101.888s157.312-40.096 204.064-101.888l-204.064-112zM224 448v109.632l18.112-9.824c-11.488-31.136-18.112-64.64-18.112-99.808 0-37.056 7.264-72.416 20-104.928l-20-11.008v115.936zM800 160h-576v86.432l56.64 30.592c52.448-70.88 136.384-117.024 231.36-117.024s178.912 46.144 231.36 117.024l56.64-30.592v-86.432zM800 448v-115.936l-20 11.008c12.736 32.512 20 67.872 20 104.928 0 35.168-6.592 68.672-18.112 99.808l18.112 9.824v-109.632z" />
</font>
</defs>
</svg>
